#!OML:ASF X:\für Bonn\!DataBase\2005_08_10_Bjorn_Final\c3d\bjorn.ASF
:FULLY-SPECIFIED
:DEGREES
94
root 0.483392 18.9933 1.45359 -177.068 7.59782 -177.843
lowerback -18.4755 0.978685 1.37403
upperback 6.98648 0.766769 2.2879
thorax 18.7035 0.359474 2.20192
lowerneck 28.0969 -8.07552 1.76592
upperneck 15.3889 -5.75737 -5.89767
head 0.316789 -1.01308 -1.7973
rclavicle 3.97569e-015 3.57812e-015
rhumerus -1488.13 -34.338 1461.13
rradius 30.9029
rwrist -21.6235
rhand -35.3912 -3.48616
rfingers 7.12502
rthumb -8.52231 -33.2942
lclavicle 3.97569e-015 3.57812e-015
lhumerus -48.3812 27.6446 -3.06778
lradius 26.4951
lwrist -10.3992
lhand -24.8882 13.1429
lfingers 7.12502
lthumb 1.61955 43.1165
rfemur -10.8697 -5.03191 14.4194
rtibia 30.4602
rfoot -18.7778 15.888
rtoes -21.7209
lfemur -5.60668 5.84529 -13.9977
ltibia 29.0031
lfoot -19.9913 -5.24339
ltoes -8.44028
95
root 0.474144 18.9872 1.50068 -177.261 7.67189 -177.839
lowerback -18.0053 1.00244 1.46847
upperback 7.34226 0.822549 2.23045
thorax 18.8555 0.412015 2.10339
lowerneck 27.583 -7.95868 1.87698
upperneck 15.2448 -5.70478 -5.89644
head 0.334066 -1.03414 -1.82427
rclavicle 8.24956e-015 -2.22639e-014
rhumerus -1489.92 -33.5374 1457.85
rradius 30.561
rwrist -21.5159
rhand -35.2116 -3.4963
rfingers 7.12502
rthumb -8.34895 -33.3113
lclavicle 8.24956e-015 -2.22639e-014
lhumerus -49.4957 28.9728 -0.534958
lradius 25.2787
lwrist -12.2913
lhand -23.956 12.0592
lfingers 7.12502
lthumb 2.51981 42.0241
rfemur -10.8968 -4.82914 14.4221
rtibia 30.5989
rfoot -18.8398 15.7022
rtoes -21.6805
lfemur -5.68232 5.93677 -13.994
ltibia 29.2526
lfoot -20.0399 -5.2851
ltoes -8.56178
96
root 0.464263 18.9824 1.55005 -177.454 7.72401 -177.836
lowerback -17.4965 1.00073 1.55292
upperback 7.69101 0.85061 2.18793
thorax 18.9732 0.45272 2.01772
lowerneck 27.0069 -7.8367 1.98201
upperneck 15.1287 -5.64533 -5.95364
head 0.368747 -1.05204 -1.87133
rclavicle -1.38155e-014 -4.77083e-014
rhumerus -1491.4 -33.0042 1454.34
rradius 29.9771
rwrist -20.5959
rhand -35.3013 -3.90097
rfingers 7.12502
rthumb -8.43551 -33.7125
lclavicle -1.38155e-014 -4.77083e-014
lhumerus -50.5729 30.6654 1.79531
lradius 23.8668
lwrist -14.6611
lhand -23.9983 11.1685
lfingers 7.12502
lthumb 2.47901 41.1339
rfemur -10.9362 -4.61875 14.4285
rtibia 30.7438
rfoot -18.9059 15.4776
rtoes -21.6748
lfemur -5.78057 6.01054 -13.9919
ltibia 29.5248
lfoot -20.0653 -5.32179
ltoes -8.48195
97
root 0.454362 18.9755 1.60249 -177.618 7.76892 -177.769
lowerback -16.9778 1.03152 1.72804
upperback 8.03531 0.907526 2.13644
thorax 19.0798 0.520683 1.8797
lowerneck 26.339 -7.71433 2.10575
upperneck 15.0461 -5.58919 -5.92811
head 0.431601 -1.07619 -1.89441
rclavicle -2.72335e-014 -3.97569e-015
rhumerus -1492.81 -32.7941 1450.84
rradius 29.2294
rwrist -19.2333
rhand -35.1569 -3.70366
rfingers 7.12502
rthumb -8.29616 -33.5208
lclavicle -2.72335e-014 -3.97569e-015
lhumerus -51.4625 32.7946 3.89389
lradius 22.3478
lwrist -17.3445
lhand -24.4017 10.9695
lfingers 7.12502
lthumb 2.08937 40.939
rfemur -11.0063 -4.42142 14.5104
rtibia 30.8901
rfoot -18.966 15.2809
rtoes -21.6918
lfemur -5.91739 6.13037 -13.9103
ltibia 29.808
lfoot -20.0724 -5.44432
ltoes -8.50425
98
root 0.443007 18.9693 1.65707 -177.812 7.80311 -177.681
lowerback -16.3794 1.04472 1.90954
upperback 8.37063 0.944438 2.11398
thorax 19.1214 0.581752 1.7632
lowerneck 25.6225 -7.60961 2.24606
upperneck 14.9881 -5.54714 -5.99437
head 0.505744 -1.10437 -1.95109
rclavicle -1.90833e-014 2.42517e-014
rhumerus -1494.03 -33.0154 1447.55
rradius 28.2929
rwrist -17.743
rhand -34.8582 -3.3181
rfingers 7.12502
rthumb -8.00788 -33.1464
lclavicle -1.90833e-014 2.42517e-014
lhumerus -52.1692 34.8707 6.15996
lradius 20.9878
lwrist -19.7351
lhand -24.414 11.6871
lfingers 7.12502
lthumb 2.07751 41.6568
rfemur -11.0434 -4.28065 14.6064
rtibia 31.0333
rfoot -18.9416 15.1471
rtoes -21.5589
lfemur -6.03497 6.24994 -13.8082
ltibia 30.0968
lfoot -20.0728 -5.50355
ltoes -8.87091
99
root 0.432189 18.9648 1.7132 -178.013 7.84011 -177.634
lowerback -15.7558 1.07139 2.07956
upperback 8.72694 1.01718 2.05226
thorax 19.173 0.663682 1.61913
lowerneck 24.8227 -7.49578 2.38822
upperneck 14.9052 -5.5173 -5.98714
head 0.586349 -1.14756 -1.98316
rclavicle 6.85807e-015 1.70955e-014
rhumerus -1495.23 -33.736 1444.59
rradius 27.1721
rwrist -15.5599
rhand -33.9697 -3.67444
rfingers 7.12502
rthumb -7.15033 -33.5336
lclavicle 6.85807e-015 1.70955e-014
lhumerus -52.7738 37.368 7.98693
lradius 19.5417
lwrist -22.0967
lhand -23.8959 12.1044
lfingers 7.12502
lthumb 2.57786 42.0686
rfemur -11.0969 -4.16925 14.655
rtibia 31.1787
rfoot -18.9211 15.0324
rtoes -21.4683
lfemur -6.16227 6.37957 -13.7464
ltibia 30.3932
lfoot -20.0107 -5.64437
ltoes -8.83264
100
root 0.421331 18.9598 1.77112 -178.198 7.87726 -177.567
lowerback -15.0839 1.09429 2.26526
upperback 9.04603 1.08519 2.00112
thorax 19.1432 0.7464 1.47333
lowerneck 24.0625 -7.36107 2.51663
upperneck 14.774 -5.46912 -5.95961
head 0.647536 -1.18193 -2.00692
rclavicle 1.77912e-014 7.55382e-015
rhumerus -1496.26 -34.7317 1441.89
rradius 25.9707
rwrist -13.4198
rhand -32.7867 -3.59725
rfingers 7.12502
rthumb -6.00833 -33.4921
lclavicle 1.77912e-014 7.55382e-015
lhumerus -53.4111 39.9369 9.4548
lradius 18.0849
lwrist -24.4529
lhand -22.8219 12.2936
lfingers 7.12502
lthumb 3.61505 42.2427
rfemur -11.1634 -4.00046 14.7343
rtibia 31.3275
rfoot -18.9062 14.88
rtoes -21.4282
lfemur -6.30336 6.48733 -13.6594
ltibia 30.6928
lfoot -19.9821 -5.78098
ltoes -8.72244
101
root 0.409793 18.9536 1.8315 -178.421 7.85557 -177.502
lowerback -14.3538 1.09717 2.45681
upperback 9.39886 1.13904 1.9482
thorax 19.118 0.828742 1.31831
lowerneck 23.1268 -7.22465 2.67577
upperneck 14.6316 -5.44154 -5.93456
head 0.729237 -1.23638 -2.03763
rclavicle 4.27387e-015 8.34896e-015
rhumerus -1497.15 -36.0953 1439.41
rradius 24.551
rwrist -11.3338
rhand -32.4169 -3.17961
rfingers 7.12502
rthumb -5.65122 -33.0843
lclavicle 4.27387e-015 8.34896e-015
lhumerus -54.1025 42.6128 10.6943
lradius 16.768
lwrist -27.517
lhand -21.7358 12.6889
lfingers 7.12502
lthumb 4.66388 42.6175
rfemur -11.192 -3.87452 14.8108
rtibia 31.4851
rfoot -18.889 14.698
rtoes -21.4206
lfemur -6.41733 6.57612 -13.5693
ltibia 30.977
lfoot -19.9085 -5.9127
ltoes -8.70731
